# xmcd CD database file
#
# Track frame offsets:
#	150
#	13160
#	32979
#	52181
#	65527
#	82854
#	86702
#	103041
#	120143
#	136312
#	153692
#	175544
#	186611
#	199338
#	218126
#	230856
#
# Disc length: 3254 seconds
#
# Revision: 1
# Processed by: cddbd v1.5.2PL0 Copyright (c) Steve Scherf et al.
# Submitted via: CDex 1.51
#
DISCID=e60cb410
DTITLE=Cato Salsa Experience - No.3
DYEAR=2005
DGENRE=Rock
TTITLE0=Burn A Hole In The Night
TTITLE1=It's Gonna Be Easy
TTITLE2=What A Day That Was
TTITLE3=Milk For Revolution
TTITLE4=Take It Home
TTITLE5=(Wascha Raj)
TTITLE6=Keep On Running
TTITLE7=Drop The Anchor
TTITLE8=Counting Down Your Dreams
TTITLE9=Big Buck
TTITLE10=Evil Man
TTITLE11=There's No Other Place
TTITLE12=So, The Circus Is Back In Town
TTITLE13=The Song Remains The Same/Lovesick
TTITLE14=Deadbeat
TTITLE15=Kick Out The Jams
EXTD=YEAR: 2005
EXTT0=
EXTT1=
EXTT2=
EXTT3=
EXTT4=
EXTT5=
EXTT6=
EXTT7=
EXTT8=
EXTT9=
EXTT10=
EXTT11=
EXTT12=
EXTT13=
EXTT14=
EXTT15=
PLAYORDER=
